<?xml version="1.0"?>
<svg xmlns="http://www.w3.org/2000/svg" height="512px" viewBox="0 0 512 511" width="512px"><path d="m200 255.222656c0 10.769532-8.730469 19.5-19.5 19.5s-19.5-8.730468-19.5-19.5c0-10.769531 8.730469-19.5 19.5-19.5s19.5 8.730469 19.5 19.5zm198.285156-19.5 46-46-28.285156-28.28125-94.285156 94.28125 94.285156 94.285156 28.285156-28.285156-46-46h113.714844v-40zm-37.285156 236h151v40h-512v-469.222656l280-42v40.222656h81v119.148438l-40 40v-119.148438h-41v391h41v-160.144531l40 40zm-121 0v-424.777344l-200 30v394.777344zm0 0" fill="#FFFFFF"/></svg>
